name processed_emg_signals						
nRows=51						
nColumns=7						
 						
endheader						
time	LGLTMED	LRF	LADDLONG	LST	LTA	LGM
0.885	0.052772336	0.037408759	0.051565717	0.396849769	0.324215535	0.049547821
0.886	0.052673625	0.037750262	0.051930251	0.407469638	0.326330032	0.050181827
0.887	0.05256668	0.038107661	0.052293946	0.418098391	0.328562408	0.050826549
0.888	0.052451606	0.03848123	0.052656605	0.428727759	0.330911511	0.05148171
0.889	0.052328522	0.038871238	0.053018038	0.439349379	0.333376104	0.052147023
0.89	0.052197565	0.039277946	0.053378057	0.449954803	0.33595487	0.05282219
0.891	0.052058887	0.039701613	0.053736478	0.460535507	0.338646415	0.053506903
0.892	0.051912659	0.040142487	0.05409312	0.4710829	0.341449266	0.054200842
0.893	0.051759066	0.040600813	0.054447806	0.481588339	0.34436188	0.054903678
0.894	0.051598314	0.041076827	0.054800364	0.492043135	0.347382641	0.055615071
0.895	0.051430622	0.041570758	0.055150625	0.502438567	0.350509863	0.056334672
0.896	0.051256229	0.042082825	0.055498423	0.51276589	0.353741797	0.057062122
0.897	0.051075389	0.04261324	0.055843596	0.523016351	0.35707663	0.057797052
0.898	0.050888374	0.043162206	0.056185986	0.533181193	0.360512488	0.058539083
0.899	0.050695472	0.043729916	0.056525439	0.543251675	0.36404744	0.059287829
0.9	0.050496989	0.044316552	0.056861804	0.553219073	0.3676795	0.060042894
0.901	0.050293246	0.044922286	0.057194932	0.563074702	0.371406633	0.060803874
0.902	0.050084582	0.045547279	0.057524681	0.572809918	0.375226753	0.061570356
0.903	0.04987135	0.046191681	0.05785091	0.582416135	0.379137732	0.062341921
0.904	0.049653921	0.046855629	0.058173479	0.591884835	0.383137398	0.063118143
0.905	0.049432681	0.047539249	0.058492257	0.601207575	0.387223543	0.063898587
0.906	0.04920803	0.048242652	0.05880711	0.610376006	0.391393924	0.064682815
0.907	0.048980384	0.048965936	0.059117911	0.619381874	0.395646268	0.06547038
0.908	0.048750173	0.049709188	0.059424534	0.628217041	0.399978273	0.066260832
0.909	0.048517842	0.050472476	0.059726857	0.636873486	0.404387617	0.067053716
0.91	0.048283848	0.051255857	0.06002476	0.645343324	0.408871957	0.067848572
0.911	0.048048662	0.05205937	0.060318126	0.65361881	0.413428934	0.068644937
0.912	0.047812768	0.052883042	0.06060684	0.661692353	0.41805618	0.069442344
0.913	0.047576662	0.053726879	0.060890791	0.669556524	0.422751316	0.070240327
0.914	0.04734085	0.054590875	0.061169868	0.677204068	0.427511965	0.071038415
0.915	0.047105851	0.055475004	0.061443965	0.684627912	0.432335746	0.071836137
0.916	0.046872191	0.056379224	0.061712978	0.691821176	0.437220287	0.072633021
0.917	0.04664041	0.057303477	0.061976802	0.698777181	0.442163223	0.073428597
0.918	0.046411052	0.058247684	0.062235339	0.705489458	0.447162203	0.074222394
0.919	0.046184673	0.05921175	0.06248849	0.71195176	0.452214894	0.075013944
0.92	0.045961834	0.06019556	0.062736159	0.718158068	0.457318985	0.07580278
0.921	0.045743103	0.061198983	0.062978253	0.7241026	0.46247219	0.076588441
0.922	0.045529055	0.062221864	0.063214681	0.72977982	0.467672254	0.077370465
0.923	0.045320269	0.063264034	0.063445352	0.735184445	0.472916954	0.078148399
0.924	0.045117326	0.0643253	0.063670181	0.740311455	0.478204108	0.078921791
0.925	0.044920815	0.065405454	0.063889083	0.745156095	0.483531571	0.079690199
0.926	0.044731324	0.066504264	0.064101974	0.749713891	0.488897245	0.080453183
0.927	0.044549443	0.06762148	0.064308774	0.753980647	0.494299082	0.081210313
0.928	0.044375763	0.068756831	0.064509407	0.757952458	0.499735083	0.081961167
0.929	0.044210874	0.069910028	0.064703795	0.761625713	0.505203303	0.082705328
0.93	0.044055367	0.071080759	0.064891867	0.764997102	0.510701856	0.083442391
0.931	0.043909829	0.072268693	0.065073551	0.768063619	0.516228914	0.084171958
0.932	0.043774842	0.07347348	0.06524878	0.770822569	0.521782711	0.084893644
0.933	0.043650989	0.074694747	0.065417488	0.773271569	0.527361543	0.085607072
0.934	0.043538844	0.075932104	0.065579612	0.775408556	0.532963772	0.086311875
0.935	0.043438976	0.077185138	0.065735094	0.777231785	0.538587824	0.0870077
